# xmcd
#
# Track frame offsets: 
#        150
#        17232
#        38365
#        56838
#        82385
#        102313
#        117778
#        136989
#        155257
#        171481
#        192390
#        211435
#        230967
#        249714
#        265687
#        291343
#        315320
#        337148
#
# Disc length: 4745 seconds
#
# Revision: 1
# Processed by: cddbd v1.5.2PL0 Copyright (c) Steve Scherf et al.
# Submitted via: ExactAudioCopy v0.95b4
#
DISCID=12128712
DTITLE=Staind - The Singles:  1996-2006
DYEAR=2006
DGENRE=Rock
TTITLE0=Come Again
TTITLE1=Mudshovel
TTITLE2=Home
TTITLE3=Outside (Family Values Version)
TTITLE4=It's Been Awhile
TTITLE5=For You
TTITLE6=Epiphany
TTITLE7=So Far Away
TTITLE8=Price To Play
TTITLE9=Zoe Jane
TTITLE10=Right Here
TTITLE11=Falling
TTITLE12=Everything Changes (Acoustic Live)
TTITLE13=Nutshell (Acoustic Live)
TTITLE14=Sober (Acoustic Live)
TTITLE15=Comfortably Numb (Acoustic Live)
TTITLE16=Schizophrenic Conversations (Live Acoustic)
TTITLE17=Reply (Live Acoustic)
EXTD=YEAR: 2006
EXTT0=
EXTT1=
EXTT2=
EXTT3=
EXTT4=
EXTT5=
EXTT6=
EXTT7=
EXTT8=
EXTT9=
EXTT10=
EXTT11=
EXTT12=
EXTT13=
EXTT14=
EXTT15=
EXTT16=
EXTT17=
PLAYORDER=
